<?xml version="1.0" encoding="utf-8"?>
<!-- Generator: Adobe Illustrator 21.0.0, SVG Export Plug-In . SVG Version: 6.00 Build 0)  -->
<svg version="1.1" id="Calque_1" xmlns="http://www.w3.org/2000/svg" xmlns:xlink="http://www.w3.org/1999/xlink" x="0px" y="0px"
	 viewBox="0 0 295.3 79" style="enable-background:new 0 0 295.3 79;" xml:space="preserve">
<style type="text/css">
	.st0{display:none;}
	.st1{display:inline;}
	.st2{fill:#1D1D1B;}
	.st3{fill:#D9D9D9;}
	.st4{fill:#EC8830;}
	.st5{fill:url(#SVGID_1_);}
	.st6{fill:#231F20;}
	.st7{fill:url(#SVGID_2_);}
	.st8{fill:url(#SVGID_3_);}
	.st9{fill:#F38A3E;}
</style>
<g id="small" class="st0">
	<g class="st1">
		<g>
			<g>
				<path class="st2" d="M78.4,283.6c-3.6-5.8-1.9-13.4,3.8-17l8.1-5.1c5.8-3.6,13.4-1.9,17,3.8l5.1,8.1c3.6,5.8,1.9,13.4-3.8,17
					c-6.1,3.9-12.4,7.9-18.5,11.7l-5.7-9c6.1-3.9,12.4-7.9,18.5-11.7c0.8-0.5,1-1.5,0.5-2.3l-5.1-8.1c-0.5-0.8-1.5-1-2.3-0.5
					l-8.1,5.1c-0.8,0.5-1,1.5-0.5,2.3l5.1,8.1l-9,5.7L78.4,283.6z"/>
				<path class="st2" d="M119.2,314.3c0.6,0.5,1.3,0.4,2,0l19.1-13.7l8.8,6.7l-20.9,15c-4.6,3.3-10.8,3.9-15.4,0.3l-2.6-2
					c-5.4-4.1-6.4-11.9-2.3-17.3l13.3-17.4l8.5,6.5l-13.3,17.4c-0.6,0.7-0.4,1.8,0.3,2.4L119.2,314.3z"/>
				<path class="st2" d="M171.8,338l-10.1-3.4l5.6-7.8c0.7-1,0.4-2.2-0.8-2.5l-9.1-3c-0.9-0.3-1.8,0.2-2.1,1.1l-3,9.1
					c-0.3,0.9,0.2,1.8,1.1,2.1c6.9,2.3,13.8,4.6,20.6,6.9l-3.4,10.1c-6.8-2.3-13.8-4.6-20.7-6.9c-6.5-2.2-10-9.1-7.8-15.6l3-9.1
					c2.2-6.5,9.1-10,15.6-7.8l9.1,3c7.2,2.4,11.8,10.2,6.5,17.6L171.8,338z"/>
				<path class="st2" d="M196,328.7c-0.9,0-1.7,0.8-1.6,1.7l0.7,21.9l-10.6,0.4l-0.7-21.9c-0.2-6.8,5.1-12.5,11.9-12.7l9.5-0.3
					c6.8-0.2,12.5,5.1,12.7,11.9l0.7,21.9L208,352l-0.7-21.9c0-0.9-0.8-1.7-1.7-1.6L196,328.7z"/>
				<path class="st2" d="M242.5,345c-6.5,2-13.4-1.6-15.5-8.1c-2.2-6.9-6.3-20.2-8.5-27.1l10.2-3.2l1.9,6.2l7.9-2.5l3.1,9.9
					l-7.9,2.5l3.5,11.1c0.3,0.9,0.8,1.5,1.8,1.2c2.2-0.7,4.4-1.4,6.6-2.1l3.2,10.2L242.5,345z"/>
				<path class="st2" d="M272.8,317.7c0.8-0.5,1-1.6,0.5-2.3l-12.1-18.3l8.9-5.9l12.1,18.3c3.8,5.7,2.2,13.3-3.5,17.1l-8,5.3
					c-5.7,3.8-13.3,2.2-17.1-3.5l-12.1-18.3l8.9-5.9l12.1,18.3c0.5,0.8,1.6,1,2.3,0.5L272.8,317.7z"/>
				<path class="st2" d="M284.1,273.6l8.1,6.9l-4.3,5.1c-0.6,0.7-0.5,1.8,0.2,2.4c5.5,4.7,11.2,9.5,16.7,14.2l-6.9,8.1
					c-5.5-4.7-11.2-9.5-16.7-14.2c-5.2-4.4-5.8-12.2-1.4-17.4L284.1,273.6z"/>
				<path class="st2" d="M322.5,275.2c-2.8,6.2-10.1,8.9-16.3,6.1l-8.7-4c-6.2-2.8-9-10.1-6.1-16.3l4-8.7c2.8-6.2,10.1-8.9,16.3-6.1
					c6.6,3,13.4,6.1,20,9.1l-4.4,9.7c-6.6-3-13.4-6.1-20-9.1c-0.8-0.4-1.8,0-2.2,0.8l-4,8.7c-0.4,0.8,0,1.8,0.8,2.2l8.7,4
					c0.8,0.4,1.8,0,2.2-0.8l4-8.8l9.7,4.4L322.5,275.2z"/>
			</g>
			<g>
				<path class="st2" d="M138.2,126.9c-5.5,4-13.3,2.8-17.2-2.7c-4.3-5.9-12.5-17-16.8-22.9l8.6-6.3l3.8,5.2l6.7-4.9l6.2,8.4
					l-6.7,4.9l6.9,9.3c0.6,0.8,1.2,1.1,2,0.5c1.9-1.4,3.8-2.7,5.6-4.1l6.3,8.6L138.2,126.9z"/>
				<path class="st2" d="M170.3,98.4l-10,3.7l-0.6-9.6c-0.1-1.2-1.1-1.9-2.2-1.5l-8.9,3.3c-0.9,0.3-1.3,1.3-1,2.2l3.4,9
					c0.3,0.9,1.3,1.3,2.2,1c6.8-2.5,13.6-5.1,20.4-7.6l3.7,10c-6.8,2.5-13.6,5.1-20.4,7.6c-6.4,2.4-13.5-0.9-15.9-7.2l-3.4-9
					c-2.4-6.4,0.9-13.5,7.2-15.9l8.9-3.3c7.1-2.7,15.6,0.5,16.1,9.6L170.3,98.4z M151.1,74.8l4.2,4l-10.6,4l-5.8-3.4L151.1,74.8z"/>
				<path class="st2" d="M195.9,73.6l0.9,10.6l-6.6,0.6c-0.9,0.1-1.6,0.9-1.5,1.8c0.6,7.3,1.3,14.6,1.9,21.9l-10.6,0.9
					c-0.6-7.2-1.3-14.6-1.9-21.9c-0.6-6.8,4.4-12.8,11.2-13.4L195.9,73.6z"/>
				<path class="st2" d="M224.5,76.1l-1.3,10.6l-6.6-0.8c-0.9-0.1-1.8,0.6-1.9,1.5c-0.9,7.2-1.7,14.6-2.6,21.8l-10.6-1.3
					c0.9-7.2,1.7-14.6,2.6-21.8c0.8-6.8,6.9-11.6,13.7-10.8L224.5,76.1z"/>
				<path class="st2" d="M234.1,114.4c-6.3-2.6-9.3-9.8-6.7-16.1l3.7-8.9c2.6-6.3,9.8-9.3,16.1-6.6l8.9,3.7
					c6.3,2.6,9.3,9.8,6.6,16.1c-2.8,6.7-5.6,13.5-8.4,20.3l-9.8-4.1c2.8-6.7,5.6-13.5,8.4-20.3c0.4-0.9,0-1.8-0.9-2.2l-8.9-3.7
					c-0.9-0.4-1.8,0.1-2.2,0.9l-3.7,8.9c-0.4,0.9,0,1.9,0.9,2.2l8.9,3.7l-4.1,9.8L234.1,114.4z"/>
			</g>
			<path class="st3" d="M93.1,213.6c0-26.3,9.6-50.3,25.5-68.8L93.4,123c-21,24.3-33.6,55.9-33.6,90.5c0,16.1,2.8,31.6,7.8,45.9
				L99,248.5C95.2,237.5,93.1,225.8,93.1,213.6z"/>
			<path class="st3" d="M303.8,213.6c0,6.7-0.6,13.2-1.8,19.6l32.7,6.2c1.6-8.3,2.4-17,2.4-25.8c0-45.1-21.5-85.2-54.9-110.5
				L262,129.6C287.4,148.8,303.8,179.3,303.8,213.6z"/>
		</g>
		<g>
			<path class="st4" d="M217.3,194.6l-16,9.6c-0.8-0.2-1.7-0.4-2.6-0.4c-5.2,0-9.4,4.2-9.4,9.4c0,0.9,0.1,1.8,0.4,2.6l-9.6,16
				l16-9.6c0.8,0.2,1.7,0.4,2.6,0.4c5.2,0,9.4-4.2,9.4-9.4c0-0.9-0.1-1.8-0.4-2.6L217.3,194.6z"/>
			
				<linearGradient id="SVGID_1_" gradientUnits="userSpaceOnUse" x1="150.1811" y1="297.1595" x2="247.929" y2="127.2058" gradientTransform="matrix(1 0 0 -1 0 426)">
				<stop  offset="0" style="stop-color:#F0B858"/>
				<stop  offset="0.66" style="stop-color:#EB7A42"/>
			</linearGradient>
			<circle class="st5" cx="198.7" cy="213.2" r="7.5"/>
			<g>
				<g>
					<path class="st6" d="M155.6,174c-11.7,13.6-16.5,32-13.1,49.7l-14,11.9c-9-28-0.8-58.9,20.8-78.8L155.6,174z"/>
					<path class="st6" d="M238.8,167.6c-13.6-11.7-32-16.6-49.7-13.1l-11.9-14c28-9,58.9-0.8,78.8,20.8L238.8,167.6z"/>
					<path class="st6" d="M162,257.1c13.6,11.7,32,16.5,49.7,13.1l11.9,14c-28,9-58.9,0.8-78.8-20.8L162,257.1z"/>
					<path class="st6" d="M245.2,250.8c11.7-13.6,16.5-32,13.1-49.7l14-11.9c9,28,0.8,58.9-20.8,78.8L245.2,250.8z"/>
				</g>
				
					<linearGradient id="SVGID_2_" gradientUnits="userSpaceOnUse" x1="199.2" y1="125.9" x2="199.2" y2="301.4" gradientTransform="matrix(1 0 0 -1 0 426)">
					<stop  offset="0" style="stop-color:#EB7932"/>
					<stop  offset="1" style="stop-color:#EC8830"/>
				</linearGradient>
				<path class="st7" d="M112.6,263l55.2-17c11.6,11.2,28.3,15.7,43.9,11.8l39.3,42.3l-17-55.2c11.2-11.6,15.7-28.3,11.8-43.9l40-38
					L233,178.7c-11.6-11.2-28.3-15.7-43.9-11.8l-39.3-42.3l17,55.2c-11.2,11.6-15.7,28.3-11.8,43.9L112.6,263z M170.9,229.4
					c-9.4-16.3-3.8-37.2,12.5-46.6c16.3-9.4,37.2-3.8,46.6,12.5c9.4,16.3,3.8,37.2-12.5,46.6C201.1,251.3,180.3,245.8,170.9,229.4z"
					/>
				
					<linearGradient id="SVGID_3_" gradientUnits="userSpaceOnUse" x1="148.8876" y1="300.5534" x2="250.2329" y2="125.0183" gradientTransform="matrix(1 0 0 -1 0 426)">
					<stop  offset="0" style="stop-color:#F0B858"/>
					<stop  offset="0.66" style="stop-color:#EB7A42"/>
				</linearGradient>
				<path class="st8" d="M212.6,255l-1.4,0.4c-3.5,0.9-7.1,1.3-10.7,1.3c-11.6,0-22.6-4.4-30.9-12.5l-1.1-1l-46.2,14.2l35.4-32.9
					l-0.4-1.4c-3.7-14.7,0.6-30.7,11.1-41.6l1-1.1l-14.2-46.2l32.9,35.4l1.4-0.4c3.5-0.9,7.1-1.3,10.7-1.3
					c11.6,0,22.6,4.4,30.9,12.5l1,1l44.3-13.1l-33.5,31.8l0.4,1.4c3.7,14.7-0.6,30.7-11.1,41.6l-1,1.1l14.2,46.2L212.6,255z
					 M200.4,175.8c-6.4,0-12.7,1.7-18.3,4.9c-17.5,10.1-23.5,32.5-13.4,50c6.5,11.3,18.7,18.3,31.7,18.3c6.4,0,12.7-1.7,18.3-4.9
					c17.5-10.1,23.5-32.5,13.4-50C225.6,182.8,213.4,175.8,200.4,175.8L200.4,175.8z"/>
			</g>
		</g>
	</g>
</g>
<g>
	<g>
		<g>
			<path class="st6" d="M84.2,39.9c-3.5,0-6.3-2.9-6.3-6.3c0-3.7,0-10.8,0-14.5h5.4v3.3h4.2v5.3h-4.2v5.9c0,0.5,0.1,0.8,0.7,0.8
				c1.2,0,2.4,0,3.5,0v5.4H84.2z"/>
			<path class="st6" d="M104.7,33.7h-5.4l1.5-4.7c0.2-0.6-0.2-1.1-0.8-1.1H95c-0.5,0-0.9,0.4-0.9,0.9v4.9c0,0.5,0.4,0.9,0.9,0.9
				c3.7,0,7.4,0,11.1,0v5.4c-3.7,0-7.4,0-11.1,0c-3.5,0-6.3-2.8-6.3-6.3v-4.9c0-3.5,2.8-6.3,6.3-6.3h4.9c3.9,0,7.4,3,6,7.5
				L104.7,33.7z M99.7,18.9l1.3,2.7h-5.8l-2.2-2.7H99.7z"/>
			<path class="st6" d="M116.9,22.4v5.4h-3.4c-0.5,0-0.9,0.4-0.9,0.9c0,3.7,0,7.5,0,11.2h-5.4c0-3.7,0-7.5,0-11.2
				c0-3.5,2.8-6.3,6.3-6.3H116.9z"/>
			<path class="st6" d="M127.5,22.4v5.4h-3.4c-0.5,0-0.9,0.4-0.9,0.9c0,3.7,0,7.5,0,11.2h-5.4c0-3.7,0-7.5,0-11.2
				c0-3.5,2.8-6.3,6.3-6.3H127.5z"/>
			<path class="st6" d="M134.7,39.9c-3.5,0-6.3-2.8-6.3-6.3v-4.9c0-3.5,2.8-6.3,6.3-6.3h4.9c3.5,0,6.3,2.8,6.3,6.3
				c0,3.7,0,7.5,0,11.2h-5.4c0-3.7,0-7.5,0-11.2c0-0.5-0.4-0.9-0.9-0.9h-4.9c-0.5,0-0.9,0.4-0.9,0.9v4.9c0,0.5,0.4,0.9,0.9,0.9h4.9
				v5.4H134.7z"/>
			<path class="st6" d="M160.5,39.9c-3.5,0-6.3-2.8-6.3-6.3v-4.9c0-3.5,2.8-6.3,6.3-6.3h4.9c3.5,0,6.3,2.8,6.3,6.3
				c0,3.7,0,7.5,0,11.2h-5.4c0-3.7,0-7.5,0-11.2c0-0.5-0.4-0.9-0.9-0.9h-4.9c-0.5,0-0.9,0.4-0.9,0.9v4.9c0,0.5,0.4,0.9,0.9,0.9h4.9
				v5.4H160.5z"/>
			<path class="st6" d="M181.2,34.5c0.4,0,0.7-0.2,0.8-0.6l3.5-11.5h5.7L187.4,35c-0.8,2.8-3.2,4.9-6.2,4.9h-1.7
				c-3.5,0-6.3-2.8-6.3-6.3V22.4h5.4v11.2c0,0.5,0.4,0.9,0.9,0.9H181.2z"/>
			<path class="st6" d="M207,33.7h-5.4L203,29c0.2-0.6-0.2-1.1-0.8-1.1h-4.9c-0.5,0-0.9,0.4-0.9,0.9v4.9c0,0.5,0.4,0.9,0.9,0.9
				c3.7,0,7.4,0,11.1,0v5.4c-3.7,0-7.4,0-11.1,0c-3.5,0-6.3-2.8-6.3-6.3v-4.9c0-3.5,2.8-6.3,6.3-6.3h4.9c3.9,0,7.4,3,6,7.5L207,33.7
				z"/>
			<path class="st6" d="M215.9,27.9c-0.5,0-0.9,0.4-0.9,0.9v11.2h-5.4V28.7c0-3.5,2.8-6.3,6.3-6.3h4.9c3.5,0,6.3,2.8,6.3,6.3v11.2
				h-5.4V28.7c0-0.5-0.4-0.9-0.9-0.9H215.9z"/>
			<path class="st6" d="M234.6,39.9c-3.5,0-6.3-2.9-6.3-6.3c0-3.7,0-10.8,0-14.5h5.4v3.3h4.2v5.3h-4.2v5.9c0,0.5,0.1,0.8,0.7,0.8
				c1.2,0,2.4,0,3.5,0v5.4H234.6z"/>
			<path class="st6" d="M250.2,34.5c0.5,0,0.9-0.4,0.9-0.9V22.4h5.4v11.2c0,3.5-2.8,6.3-6.3,6.3h-4.9c-3.5,0-6.3-2.8-6.3-6.3V22.4
				h5.4v11.2c0,0.5,0.4,0.9,0.9,0.9H250.2z"/>
			<path class="st6" d="M267.7,22.4v5.4h-3.4c-0.5,0-0.9,0.4-0.9,0.9c0,3.7,0,7.5,0,11.2H258c0-3.7,0-7.5,0-11.2
				c0-3.5,2.8-6.3,6.3-6.3H267.7z"/>
			<path class="st6" d="M274.9,39.9c-3.5,0-6.3-2.8-6.3-6.3v-4.9c0-3.5,2.8-6.3,6.3-6.3h4.9c3.5,0,6.3,2.8,6.3,6.3
				c0,3.7,0,7.5,0,11.2h-5.4c0-3.7,0-7.5,0-11.2c0-0.5-0.4-0.9-0.9-0.9h-4.9c-0.5,0-0.9,0.4-0.9,0.9v4.9c0,0.5,0.4,0.9,0.9,0.9h4.9
				v5.4H274.9z"/>
		</g>
		<g>
			<path class="st9" d="M80.7,51.5c1.6-1.1,3.6-1,5.1,0c0.5,0.3,0.2,0.8-0.2,1.1c-1.1,0.5-2.1-0.3-3.2,0c-0.9,0.2-1.4,1.4-1.7,2.2
				c-0.7,2-1.2,5,1.1,6c0.5,0.2,1.2,0.1,1.4-0.3c0.3-0.6,0.9-1.5,0.2-1.9c-0.2-0.1-0.6-0.3-0.6-0.4c-0.5-0.8,0.5-1.3,1.2-1.5
				c1.1-0.4,2.8,0.3,2.2,1.7c0,0.1-0.4,0.2-0.4,0.3c0,0.7-0.3,1.4-0.4,2.1c-0.1,0.5-0.6,0.7-0.9,1.2c-0.4,0.3-0.9,0.2-1.4,0.4
				c-2,0.9-4.3-0.4-4.7-2.6C77.6,56.6,77.9,53.4,80.7,51.5z"/>
			<path class="st9" d="M90.5,52.9c1.7,0.2,3.3,1.9,3.2,3.7c-0.4,1.1-2.8,2-3.6,2.7c-0.1,0-0.5,0.2-0.4,0.5c0.8,1.3,2.2,0.7,3.4,0.1
				c0.8,0.6,0.4,1.9-0.5,2c-1,0.2-2.1,0.4-3.1,0c-2.2-1-2.7-3.5-2.7-5.6C86.8,54.2,88.4,52.6,90.5,52.9z M91.6,56.1
				c0.5-1.1-1.3-1.7-2.2-1.2c-1,0.5-0.7,2.5-0.2,2.6C90.2,57.5,91.2,57.2,91.6,56.1z"/>
			<path class="st9" d="M94.6,55.3c0.4-1.2,1.1-1.9,1.4-2.5c0.5-1.2,2.1-0.8,2.9,0.1c0.6,0.7,0.9,1.4,1.1,2.2
				c0.5,1.7-0.4,3.2-1.5,4.4C98,60,96.8,60,96.2,59.7C94.7,58.8,94.1,57,94.6,55.3z M97.5,54.5C97,54,94.6,57,96.9,57.5
				C98.5,57.9,98.7,55.8,97.5,54.5z"/>
			<path class="st9" d="M102.3,53.5c1.2-1.1,2.8-2.7,4.4-1.9c0.3,0.1,0.4,0.4,0.3,0.9c-0.5,1.3-1.7,1.3-2.7,2
				c-0.9,0.7-1.6,1.6-1.7,2.6c0,0.6,0.1,1.4,0.5,2c0.5,0.7,1.3,0.8,2,1.1c1.2,0.4,1.9-1.1,2.9-1.2c1-0.1,0.4,1.3,0.1,1.7
				c-1.1,1.7-3.1,1.4-4.8,1c-2-0.6-3.1-2.6-2.8-4.8C100.8,55.4,101.4,54.3,102.3,53.5z"/>
			<path class="st9" d="M113.6,62.2c-1.6-0.3-3.3-0.2-4.2-1.7c-0.6-0.8-0.4-2.3,0.2-3.1c1.8-2.4,4.9-1.6,4.9-1.7
				c0.2-0.3,0.3-1.3-0.2-1.4c-1.3-0.3-2.1,0.3-3.3,0.7c-0.9,0.3-1.1-1.5-0.9-1.7c1.6-1.1,4.9-1.7,5.8,0.4c0.9,1.9-0.2,3.7-0.3,5.8
				c-0.1,1.3-0.2,4.3-1.4,3.4C113.9,62.8,113.9,62.2,113.6,62.2z M114.2,57.3c-1.3,0.5-3.5,0.1-3.5,2c0,1,3.1,1.4,3.2,1
				C114.1,59.3,114.7,58.5,114.2,57.3z"/>
			<path class="st9" d="M118.7,53.5c1.2-1.1,2.8-2.7,4.4-1.9c0.3,0.1,0.4,0.4,0.3,0.9c-0.5,1.3-1.7,1.3-2.7,2
				c-0.9,0.7-1.6,1.6-1.7,2.6c0,0.6,0.1,1.4,0.5,2c0.5,0.7,1.3,0.8,2,1.1c1.2,0.4,1.9-1.1,2.9-1.2c1-0.1,0.4,1.3,0.1,1.7
				c-1.1,1.7-3.1,1.4-4.8,1c-2-0.6-3.1-2.6-2.8-4.8C117.1,55.4,117.7,54.3,118.7,53.5z"/>
			<path class="st9" d="M126,51.9c0.2-0.4,0.9-0.7,1.5-0.4c0.3,0.2,0.3,0.5,0.3,0.9c-0.2,1.6-0.5,3.3,0,4.9c0.7-1.3,2-2.8,3.6-2.1
				c0.5,2.3,1.1,4.6,0.9,6.9c0,0.5-1.2,0.8-1.6,0.4c-1.2-1.4-0.1-3.6-1-5.3c-1,1-1.8,2.2-2.4,3.6c-0.2,0.3-0.8,0.5-1.2,0.5
				c-0.2-0.1-0.7-0.1-0.7-0.4c0-1.6,0.1-3.2,0.3-4.9C125.9,54.7,125.3,53.1,126,51.9z"/>
			<path class="st9" d="M133.9,54.5c0.3-0.6,1.1-0.8,1.7-0.5c0.4,0.2,0.9,0.7,0.5,1.1c-0.7,1-0.3,1.9-0.6,2.8c-0.4,1.1,0.3,2,0,3.1
				c0,0.1-0.1,0.3-0.2,0.3c-0.7,0.2-1.5,0.3-1.7-0.4c-0.4-1.3-0.1-2.6-0.1-3.8C133.5,56.1,133.5,55.3,133.9,54.5z M134.3,50.4
				c0.7-0.4,1.6-0.4,2,0.2c0.4,0.6-0.2,1.6-0.6,1.8c-0.5,0.3-1.2,0.2-1.7-0.4C133.7,51.6,134,50.6,134.3,50.4z"/>
			<path class="st9" d="M137.8,54.2c0.3-0.7,1.5-0.6,1.7,0.1c0.2,0.5-0.2,1.1-0.2,1.7c0.1,0.1,0.2,0.4,0.2,0.3
				c0.7-1.2,1.4-2.6,3-2.1c1.2,2,1.1,4.4,1.2,6.6c0.1,0.4,0.1,1-0.3,1.1c-0.6,0.2-1.4,0.4-1.5-0.2c-0.3-1.8-0.1-3.6-0.5-5.4
				c-1.1,1.2-1.3,2.9-2.1,4.4c-0.3,0.6-1.3,0.7-1.5,0c-0.3-0.8-0.1-1.9-0.1-2.8C137.7,56.6,137.4,55.2,137.8,54.2z"/>
			<path class="st9" d="M151.5,52.2c0.2,0.1,0.5,0.3,0.4,0.7c-1.4,3-0.7,6.3-0.4,9.5c0.1,1.2,0.1,2.5-1,3.1c-1.7,1-4.3,0.1-4.9-1.8
				c-0.3-0.8,0.9-1.3,1.3-0.8c0.7,0.7,1.3,1.9,2.4,1.8c0.2-0.1,0.3-0.4,0.4-0.6c0.3-1.9,0-3.8-0.4-5.7c0-0.2,0.3-0.8-0.2-0.6
				c-0.8,0.5-1.7,0.7-2.5,0.4c-0.6-0.2-0.9-0.7-1.3-1.3c-0.5-1.3-0.4-2.6,0.7-3.5C147.7,52.1,149.8,51.2,151.5,52.2z M147,55.4
				c0.1,0.6,0.3,1.5,0.8,1.5c0.8,0.1,1.1-1.1,1.5-1.8c0.2-0.4,0.3-1.3,0.1-1.7c-0.3-0.5-1.3,0-1.8,0.4
				C147.2,54.2,146.9,54.8,147,55.4z"/>
			<path class="st9" d="M156.8,60.7c0.4-3,0.1-5.8,0.7-8.8c0.1-0.4,1.2-0.4,1.4-0.1c1.4,1.8,1.4,4.2,2.8,6c0.4-0.9,0.2-1.8,0.2-2.7
				c0-1.7-0.9-3.4-0.6-5.1c0.1-0.6,1.4-0.7,1.6-0.2c0.9,2.3,0.8,4.8,0.8,7.2c0,1.1-0.1,2.3-0.9,3.2c-0.4,0.4-1.3,0.5-1.6,0.1
				c-0.9-1-1.4-2.3-2.1-3.5c-0.5,1.4,0,2.9-0.4,4.3c-0.2,0.5-1.3,0.7-1.8,0.1C156.8,61,156.8,60.8,156.8,60.7z"/>
			<path class="st9" d="M164.5,55.3c0.4-1.2,1.1-1.9,1.4-2.5c0.5-1.2,2.1-0.8,2.9,0.1c0.6,0.7,0.9,1.4,1.1,2.2
				c0.5,1.7-0.4,3.2-1.5,4.4c-0.5,0.5-1.6,0.5-2.2,0.2C164.7,58.8,164,57,164.5,55.3z M167.4,54.5c-0.5-0.5-2.9,2.5-0.5,3.1
				C168.5,57.9,168.6,55.8,167.4,54.5z"/>
			<path class="st9" d="M171.3,52.6c0.8-0.3,1.9-0.1,1.9,0.7c0,1.4-0.2,2.9,0,4.3c0.2,0.9,0.5,3,1.3,2.4c1.9-1.3,2.4-4.3,1.1-6.4
				c-0.3-0.5-0.7-1.4-0.1-1.6c1.5-0.6,2.7,1.3,2.7,2.6c0.2,2.7-0.6,5.9-3,6.9c-3.8,1.6-4.7-3.8-4.5-6.8
				C170.8,53.9,170.6,53.1,171.3,52.6z"/>
			<path class="st9" d="M178.6,53.9c-0.4-1.3,1.7-1.6,2.1-0.9c1,1.2,1.1,3.1,2.1,4.5c1.1-1.9,1.6-4.1,2.3-6.3c0.3-1,1.8-0.8,2.6-0.1
				c0.1,0.2-0.1,0.5-0.1,0.8c-0.1,0.2-0.5,0.4-0.6,0.7c-0.8,2.8-1.8,5.4-3.1,8c-0.2,0.4-1.2,0.9-1.7,0.4c-1.1-1-1.7-2.5-2.2-3.8
				C179.5,56,179,54.9,178.6,53.9z"/>
			<path class="st9" d="M192.1,52.9c1.7,0.2,3.3,1.9,3.2,3.7c-0.4,1.1-2.8,2-3.6,2.7c-0.1,0-0.5,0.2-0.4,0.5
				c0.8,1.3,2.2,0.7,3.4,0.1c0.8,0.6,0.4,1.9-0.5,2c-1,0.2-2.1,0.4-3.1,0c-2.2-1-2.7-3.5-2.7-5.6C188.4,54.2,190,52.6,192.1,52.9z
				 M193.2,56.1c0.5-1.1-1.3-1.7-2.2-1.2c-1,0.5-0.7,2.5-0.2,2.6C191.8,57.5,192.9,57.2,193.2,56.1z"/>
			<path class="st9" d="M196.6,49.2c0.4-0.9,2.1-1.1,2.2,0.2c0,0.2-0.1,0.7-0.1,0.9c0,1.5,0.1,3.2,0,4.7c-0.1,2.4,0.6,4.8-0.4,7
				c-0.3,0.7-1.1,0.7-1.7,0.3c-0.3-0.2-0.5-0.8-0.3-1.2c0.6-2.2,0.4-4.4,0.5-6.7C196.8,52.7,195.9,50.8,196.6,49.2z"/>
			<path class="st9" d="M201.1,49.2c0.4-0.9,2.1-1.1,2.2,0.2c0,0.2-0.1,0.7-0.1,0.9c0,1.5,0.1,3.2,0,4.7c-0.1,2.4,0.6,4.8-0.4,7
				c-0.3,0.7-1.1,0.7-1.7,0.3c-0.3-0.2-0.5-0.8-0.3-1.2c0.6-2.2,0.4-4.4,0.5-6.7C201.3,52.7,200.4,50.8,201.1,49.2z"/>
			<path class="st9" d="M208.7,52.9c1.7,0.2,3.3,1.9,3.2,3.7c-0.4,1.1-2.8,2-3.6,2.7c-0.1,0-0.5,0.2-0.4,0.5
				c0.8,1.3,2.2,0.7,3.4,0.1c0.8,0.6,0.4,1.9-0.5,2c-1,0.2-2.1,0.4-3.1,0c-2.2-1-2.7-3.5-2.7-5.6C204.9,54.2,206.5,52.6,208.7,52.9z
				 M209.7,56.1c0.5-1.1-1.3-1.7-2.2-1.2c-1,0.5-0.7,2.5-0.2,2.6C208.4,57.5,209.4,57.2,209.7,56.1z"/>
			<path class="st9" d="M219.3,55.5c0.2-0.1,0.5,0,0.6,0.2c0.2,0.9-0.7,1.1-1.2,1.3c-1.8,0.5-3.8,0.5-5.7,0
				c-0.4-0.1-0.4-0.3-0.4-0.3c-0.1-0.7,0.5-1.3,1.2-1.3C215.6,55.4,217.4,55.8,219.3,55.5z"/>
			<path class="st9" d="M223.9,48.9c0.2-0.3,1.3-0.6,1.5-0.1c1.2,2.5,1.6,5.2,2.3,7.9c0,0.3,0.5,0.3,0.7,0.6c0.1,0.2,0.1,0.5,0,0.6
				c-0.7,1.5,0.7,2.7,0.5,4.1c-0.1,0.6-1.3,0.9-1.7,0.3c-0.7-1-0.2-2.6-1.3-3.3c-0.8-0.5-2.1-0.3-2.9,0.3c-1,0.8-0.3,4.2-2.6,3.1
				c-0.3-1.4,0.5-2.7,0.8-4.1c0.4-1.8,0.9-3.7,1.5-5.4C223.2,51.4,223.1,50,223.9,48.9z M223.5,57.2c0.5,0.3,1.9,0.4,2.1-0.3
				c0.4-1.4-0.4-2.8-1-4.1c-0.5,0.6-0.6,1.3-0.7,2C223.8,55.7,222.9,56.9,223.5,57.2z"/>
			<path class="st9" d="M234.6,53.1c0.4-0.7,1.7-0.6,1.9-0.1c1.1,2.4-1.9,6.3-0.2,10.6c0.3,0.7,1.3,0.5,1.5,0.2
				c0.2-0.5,0.7-1.8,1.5-1.5c1.2,0.5,0.6,1.1,0.2,2.2c-0.6,1.5-2.6,1.9-4,1.3c-0.9-0.4-1.5-1.4-1.6-2.3c0-1.1,0.2-2.3-0.1-3.2
				c-0.2-0.5-1.1,0.2-1.6,0c-0.5-0.3-1.1-0.2-1.5-0.5c-0.5-0.6-1.1-1.1-1.3-1.7c-0.4-0.9-0.4-1.8-0.1-2.7c0.3-1.3,1.2-2.3,2.5-2.8
				C232.8,52.3,234,52.3,234.6,53.1z M232.4,58.8c0.5,0.3,1.2,0.2,1.5-0.4c0.4-1,0.3-2.1,0.3-3.1c0-0.6-0.7-1.3-1.5-1.2
				c-0.3,0.1-0.4,0.3-0.6,0.5C230.8,55.9,231,58,232.4,58.8z"/>
			<path class="st9" d="M238.7,52.6c0.8-0.3,1.9-0.1,1.9,0.7c0,1.4-0.2,2.9,0,4.3c0.2,0.9,0.5,3,1.3,2.4c1.9-1.3,2.4-4.3,1.1-6.4
				c-0.3-0.5-0.7-1.4-0.1-1.6c1.5-0.6,2.7,1.3,2.7,2.6c0.2,2.7-0.6,5.9-3,6.9c-3.8,1.6-4.7-3.8-4.5-6.8
				C238.2,53.9,238,53.1,238.7,52.6z"/>
			<path class="st9" d="M247.1,54.5c0.3-0.6,1.1-0.8,1.7-0.5c0.4,0.2,0.9,0.7,0.5,1.1c-0.7,1-0.3,1.9-0.6,2.8c-0.4,1.1,0.3,2,0,3.1
				c0,0.1-0.1,0.3-0.2,0.3c-0.7,0.2-1.5,0.3-1.7-0.4c-0.4-1.3-0.1-2.6-0.1-3.8C246.7,56.1,246.7,55.3,247.1,54.5z M247.5,50.4
				c0.7-0.4,1.6-0.4,2,0.2c0.4,0.6-0.2,1.6-0.6,1.8c-0.5,0.3-1.2,0.2-1.7-0.4C246.9,51.6,247.2,50.6,247.5,50.4z"/>
			<path class="st9" d="M254,50.5c0.1-1.1,1.5-1.1,2.3-0.5c0.1,0.1,0.2,0.4,0.1,0.7c-0.6,1.4-0.9,3-0.9,4.5c1.2-0.1,3.5-0.7,3.1,0.7
				c-0.3,1.1-2.3,0.9-3.5,0.9c-0.2,1.4,0.5,7.4,0.4,8.8c0,0.4-0.3,0.7-0.8,0.7c-0.5,0-0.7-0.2-0.9-0.7c-0.5-1.3-0.3-7.6-1-8.8
				c-0.8,0.6-2.4,1.2-2.8,0c-0.1-0.3,0.2-0.7,0.5-1c0.8-0.4,2-0.3,2.5-0.9c0.4-0.5,0.3-1.5,0.4-2.2C253.7,52,253.9,51.3,254,50.5z"
				/>
			<path class="st9" d="M263.8,62.2c-1.6-0.3-3.3-0.2-4.2-1.7c-0.6-0.8-0.4-2.3,0.2-3.1c1.8-2.4,4.9-1.6,4.9-1.7
				c0.2-0.3,0.3-1.3-0.2-1.4c-1.3-0.3-2.1,0.3-3.3,0.7c-0.9,0.3-1.1-1.5-0.9-1.7c1.6-1.1,4.9-1.7,5.8,0.4c0.9,1.9-0.2,3.7-0.3,5.8
				c-0.1,1.3-0.2,4.3-1.4,3.4C264.1,62.8,264.1,62.2,263.8,62.2z M264.4,57.3c-1.3,0.5-3.5,0.1-3.5,2c0,1,3.1,1.4,3.2,1
				C264.3,59.3,264.8,58.5,264.4,57.3z"/>
			<path class="st9" d="M268,54.5c0.3-0.6,1.1-0.8,1.7-0.5c0.4,0.2,0.9,0.7,0.5,1.1c-0.7,1-0.3,1.9-0.6,2.8c-0.4,1.1,0.3,2,0,3.1
				c0,0.1-0.1,0.3-0.2,0.3c-0.7,0.2-1.5,0.3-1.7-0.4c-0.4-1.3-0.1-2.6-0.1-3.8C267.6,56.1,267.6,55.3,268,54.5z M268.5,50.4
				c0.7-0.4,1.6-0.4,2,0.2c0.4,0.6-0.2,1.6-0.6,1.8c-0.5,0.3-1.2,0.2-1.7-0.4C267.8,51.6,268.2,50.6,268.5,50.4z"/>
			<path class="st9" d="M272,54.2c0.3-0.7,1.5-0.6,1.7,0.1c0.2,0.5-0.2,1.1-0.2,1.7c0.1,0.1,0.2,0.4,0.2,0.3c0.7-1.2,1.4-2.6,3-2.1
				c1.2,2,1.1,4.4,1.2,6.6c0.1,0.4,0.1,1-0.3,1.1c-0.6,0.2-1.4,0.4-1.5-0.2c-0.3-1.8-0.1-3.6-0.5-5.4c-1.1,1.2-1.3,2.9-2.1,4.4
				c-0.3,0.6-1.3,0.7-1.5,0c-0.3-0.8-0.1-1.9-0.1-2.8C271.9,56.6,271.6,55.2,272,54.2z"/>
			<path class="st9" d="M283.1,52.9c1.7,0.2,3.3,1.9,3.2,3.7c-0.4,1.1-2.8,2-3.6,2.7c-0.1,0-0.5,0.2-0.4,0.5
				c0.8,1.3,2.2,0.7,3.4,0.1c0.8,0.6,0.4,1.9-0.5,2c-1,0.2-2.1,0.4-3.1,0c-2.2-1-2.7-3.5-2.7-5.6C279.4,54.2,281,52.6,283.1,52.9z
				 M284.2,56.1c0.5-1.1-1.3-1.7-2.2-1.2c-1,0.5-0.7,2.5-0.2,2.6C282.9,57.5,283.9,57.2,284.2,56.1z"/>
		</g>
		<g>
			<path class="st9" d="M46.5,33.5l-6,3.6c-1.1-0.3-2.3-0.2-3.6,1c0,0,0,0,0,0c-0.9,1.1-1,2.3-0.7,3.3l-3.6,6l6-3.6
				c0.9,0.3,2,0.2,3.2-0.6c1.3-1.3,1.5-2.6,1.2-3.8L46.5,33.5z"/>
			<g>
				<g>
					<g>
						<path class="st6" d="M23.7,26.6c-4.3,4.9-6,11.5-4.8,17.9l-5.1,4.3c-3.3-10.1-0.3-21.2,7.6-28.4L23.7,26.6z"/>
						<path class="st6" d="M54,24.3c-5-4.2-11.7-6-18.1-4.7l-4.3-5c10.2-3.2,21.5-0.3,28.7,7.5L54,24.3z"/>
						<path class="st6" d="M26,56.6c5,4.2,11.7,6,18.1,4.7l4.3,5c-10.2,3.2-21.5,0.3-28.7-7.5L26,56.6z"/>
						<path class="st6" d="M56.3,54.3c4.3-4.9,6-11.5,4.8-17.9l5.1-4.3c3.3,10.1,0.3,21.2-7.6,28.3L56.3,54.3z"/>
					</g>
				</g>
				<path class="st9" d="M8,58.7l20.1-6.1c4.2,4,10.3,5.6,16,4.2L58.5,72l-6.2-19.9C56.4,48,58,42,56.6,36.4l14.6-13.7l-19.3,5.6
					c-4.2-4-10.3-5.6-16-4.2L21.5,8.9l6.2,19.9c-4.1,4.2-5.7,10.2-4.3,15.8L8,58.7z M29.2,46.6c-3.4-5.9-1.4-13.4,4.6-16.8
					c6-3.4,13.6-1.4,17,4.5c3.4,5.9,1.4,13.4-4.6,16.8C40.3,54.5,32.6,52.5,29.2,46.6z"/>
			</g>
		</g>
	</g>
</g>
</svg>
